<svg id="Layer_1" height="512" viewBox="0 0 512 512" width="512" xmlns="http://www.w3.org/2000/svg"><g><g><path d="m340.636 32.001c-57.072-.254-106.225 33.656-128.252 82.445-9.306 20.613-22.225 39.394-38.216 55.386l-4.334 4.334c-15.992 15.993-34.774 28.912-55.387 38.218-48.793 22.028-82.701 71.183-82.445 128.256.348 77.74 65.591 140.17 143.326 139.342 167.197-1.779 302.875-137.457 304.654-304.655.827-77.737-61.605-142.98-139.346-143.326z" fill="#faa01e"/></g><path d="m340.579 32.002c-57.048-.23-106.175 33.671-128.195 82.444-9.306 20.612-22.225 39.394-38.216 55.386l-4.334 4.334c-15.992 15.993-34.774 28.912-55.387 38.219-48.793 22.028-82.701 71.184-82.445 128.256.119 26.437 21.586 47.785 47.995 47.785h.22c26.509-.119 47.903-21.706 47.784-48.215-.078-17.348 10.107-33.179 25.948-40.33 31.374-14.165 59.557-33.622 83.773-57.837l4.329-4.331c24.209-24.208 43.666-52.391 57.83-83.765 7.111-15.75 22.84-25.932 40.08-25.948l.352.001h.114c26.456-.002 47.936-21.418 47.998-47.889.06-26.495-21.357-48.024-47.846-48.11z" fill="#fabe19"/><g><g><circle cx="436" cy="204" fill="#f57828" r="12"/></g><g><circle cx="236" cy="172" fill="#faa01e" r="12"/></g><g><circle cx="368" cy="272" fill="#f57828" r="16"/></g><g><circle cx="212" cy="372" fill="#f57828" r="20"/></g><g><circle cx="196" cy="212" fill="#faa01e" r="20"/></g></g></g></svg>