<svg id="Capa_1" enable-background="new 0 0 504.525 504.525" height="512" viewBox="0 0 504.525 504.525" width="512" xmlns="http://www.w3.org/2000/svg"><path d="m433.833 89.562-22.767-10.102 11.771-25.722 22.582 10.202c3.52 1.592 5.083 5.736 3.492 9.256l-5.821 12.873c-1.592 3.521-5.736 5.085-9.257 3.493z" fill="#cbe5e8"/><g><g><path d="m390.661 108.26-38.489 264.951v16.532h-199.764v-16.532l196.349-283.899 7.301-11.944 34.603 11.944z" fill="#fee97d"/></g></g><g><g><path d="m113.864 108.26 38.489 264.951v16.532h199.764v-16.532l-196.349-283.899-7.301-11.944-34.603 11.944z" fill="#fee45a"/></g></g><path d="m252.263 228.832-99.855 144.379v16.531h199.709v-16.531z" fill="#fed402"/><path d="m129.371 413.038 11.933-32.108c1.725-4.64 6.153-7.719 11.104-7.719h199.764c4.951 0 9.379 3.079 11.104 7.719l11.933 32.108v16.834h-245.838z" fill="#678d98"/><path d="m197.607 380.93c1.725-4.64 6.153-7.719 11.104-7.719h-56.303c-4.951 0-9.379 3.079-11.104 7.719l-11.933 32.108v16.834h56.303v-16.834z" fill="#537983"/><path d="m75.624 454.31v-29.389c0-6.563 5.32-11.883 11.883-11.883h329.567c6.563 0 11.883 5.32 11.883 11.883v29.389 19.823h-353.333z" fill="#7ca1b1"/><path d="m131.927 424.921c0-6.563 5.32-11.883 11.883-11.883h-56.303c-6.563 0-11.883 5.32-11.883 11.883v29.389 19.823h56.303v-19.823z" fill="#678d98"/><g><path d="m256.444 235.738 19.434 39.378c.675 1.367 1.979 2.315 3.487 2.534l43.456 6.315c3.799.552 5.316 5.221 2.567 7.9l-31.445 30.651c-1.092 1.064-1.59 2.597-1.332 4.1l7.011 40.878c.712 4.153-4.04 7.022-7.383 4.459l-37.13-28.471c-1.663-1.275-3.974-1.275-5.637 0l-37.13 28.471c-3.343 2.564-8.096-.306-7.383-4.459l7.011-40.878c.258-1.503-.24-3.036-1.332-4.1l-31.445-30.651c-2.749-2.68-1.232-7.348 2.567-7.9l43.456-6.315c1.509-.219 2.813-1.167 3.487-2.534l19.434-39.378c1.699-3.442 6.608-3.442 8.307 0z" fill="#d9b1ee"/><g><path d="m250.019 343.13 24.267-71.239-17.842-36.152c-1.699-3.443-6.608-3.443-8.307 0l-19.434 39.378c-.675 1.367-1.979 2.314-3.487 2.534l-43.456 6.315c-3.799.552-5.316 5.221-2.567 7.9l31.445 30.651c1.092 1.064 1.59 2.597 1.332 4.1l-7.011 40.878c-.712 4.153 4.04 7.022 7.383 4.459l37.13-28.471c.174-.136.359-.247.547-.353z" fill="#cb97e7"/></g><path d="m445.081 454.31h-385.582c-5.973 0-10.814 4.842-10.814 10.814v28.586c0 5.973 4.842 10.814 10.814 10.814h385.582c5.973 0 10.814-4.842 10.814-10.814v-28.586c.001-5.972-4.841-10.814-10.814-10.814z" fill="#678d98"/><path d="m104.988 493.711v-28.586c0-5.973 4.842-10.814 10.814-10.814h-56.303c-5.973 0-10.814 4.842-10.814 10.814v28.586c0 5.973 4.842 10.814 10.814 10.814h56.303c-5.972 0-10.814-4.842-10.814-10.814z" fill="#537983"/><path d="m374.216 7.5-30.706 67.905c-2.392 5.289-.043 11.515 5.246 13.907l41.904 18.949c5.289 2.392 11.515.043 13.907-5.246l43.191-95.515z" fill="#8ebac5"/><path d="m362.854 94.748 19.615-43.377c6.752-14.932 21.622-24.527 38.009-24.527h18.534l8.746-19.344h-73.542l-30.706 67.905c-2.392 5.289-.043 11.515 5.246 13.907l13.784 6.233c.096-.267.195-.534.314-.797z" fill="#7ca1b1"/><path d="m343.511 75.405c-2.392 5.289-.043 11.515 5.246 13.907l41.904 18.949c5.289 2.392 11.515.043 13.907-5.246l8.094-17.901-61.057-27.609z" fill="#7ca1b1"/><g><path d="m465.764 15h-117.42c-4.143 0-7.5-3.358-7.5-7.5s3.357-7.5 7.5-7.5h117.42c4.143 0 7.5 3.358 7.5 7.5s-3.358 7.5-7.5 7.5z" fill="#7ca1b1"/></g><g fill="#f6a7d2"><path d="m413.368 234.785 15.474-21.521c1.959-2.725 5.801-3.342 8.467-1.302 10.088 7.719 14.017 17.887 11.787 30.504-.556 3.144-3.491 5.3-6.659 4.902l-24.947-3.133c-4.514-.566-6.778-5.756-4.122-9.45z"/><path d="m410.223 286.348 22.707 2.782c2.875.352 4.936 3.004 4.498 5.867-1.656 10.837-7.722 18.029-18.196 21.576-2.61.884-5.459-.443-6.472-3.006l-7.979-20.18c-1.444-3.65 1.545-7.516 5.442-7.039z"/><path d="m92.212 234.785-15.474-21.521c-1.959-2.725-5.801-3.342-8.467-1.302-10.088 7.719-14.017 17.887-11.787 30.504.556 3.144 3.491 5.3 6.659 4.902l24.947-3.133c4.514-.566 6.778-5.756 4.122-9.45z"/><path d="m95.357 286.348-22.707 2.782c-2.875.352-4.936 3.004-4.498 5.867 1.656 10.837 7.722 18.029 18.196 21.576 2.61.884 5.459-.443 6.472-3.006l7.979-20.18c1.444-3.65-1.545-7.516-5.442-7.039z"/></g></g><path d="m70.692 89.562 22.767-10.102-11.771-25.722-22.582 10.203c-3.52 1.592-5.083 5.736-3.492 9.256l5.821 12.873c1.592 3.52 5.736 5.084 9.257 3.492z" fill="#cbe5e8"/><path d="m130.309 7.5 30.706 67.905c2.392 5.289.043 11.515-5.246 13.907l-41.904 18.949c-5.289 2.392-11.515.043-13.907-5.246l-43.191-95.515z" fill="#8ebac5"/><g fill="#7ca1b1"><path d="m127.821 95.514-39.799-88.014h-31.255l43.19 95.514c2.391 5.289 8.618 7.638 13.907 5.246l18.001-8.14c-1.718-1.061-3.149-2.627-4.044-4.606z"/><path d="m161.014 75.405c2.392 5.289.043 11.515-5.246 13.907l-41.904 18.949c-5.289 2.392-11.515.043-13.907-5.246l-8.094-17.901 61.057-27.609z"/><path d="m161.014 75.405c2.392 5.289.043 11.515-5.246 13.907l-41.904 18.949c-5.289 2.392-11.515.043-13.907-5.246l-8.094-17.901 61.057-27.609z"/></g><path d="m127.821 95.514-10.009-22.134-25.949 11.734 8.094 17.901c2.391 5.289 8.618 7.638 13.907 5.246l18.001-8.14c-1.718-1.062-3.149-2.628-4.044-4.607z" fill="#678d98"/><g><path d="m38.761 15h117.42c4.143 0 7.5-3.358 7.5-7.5s-3.357-7.5-7.5-7.5h-117.42c-4.143 0-7.5 3.358-7.5 7.5s3.358 7.5 7.5 7.5z" fill="#7ca1b1"/></g><path d="m348.757 89.312 13.784 6.233c.096-.267.194-.534.313-.797l12.073-26.698-23.321-10.545-8.094 17.901c-2.393 5.288-.044 11.514 5.245 13.906z" fill="#678d98"/></svg>